# xmcd
#
# Track frame offsets:
#	150
#	11002
#	22221
#	31638
#	42903
#	54092
#	64289
#	75801
#	85058
#	95783
#	107220
#	116509
#	127544
#	141258
#	153730
#	166755
#	179697
#	191724
#	204133
#	216253
#	228365
#	242114
#
# Disc length: 3435 seconds
#
# Revision: 0
# Processed by: cddbd v1.5.2PL0 Copyright (c) Steve Scherf et al.
# Submitted via: EasyCDDAExtractor 4.6.0.1
#
DISCID=200d6916
DTITLE=Buck Owens - The Buck Owens Collection (1959-1990) Sampler
DYEAR=1992
DGENRE=Country
TTITLE0=Act Naturally
TTITLE1=Above And Beyond
TTITLE2=Love's Gonna Live Here
TTITLE3=My Heart Skips A Beat
TTITLE4=Together Again
TTITLE5=I've Got A Tiger By The Tail
TTITLE6=Cryin' Time
TTITLE7=Buckaroo
TTITLE8=Waiting In Your Welfare Line
TTITLE9=Open Up Your Heart
TTITLE10=Sam's Place
TTITLE11=Johnnie B. Goode
TTITLE12=Tall Dark Stranger
TTITLE13=Made In Japan
TTITLE14=Streets Of Bakersfield feat. Dwight Yoakam
TTITLE15=Act Naturally (w/ commentary)
TTITLE16=Love's Gonna Live Here (w/ commentary)
TTITLE17=I've Got A Tiger By The Tail (w/ commentary)
TTITLE18=Buckaroo (w/ commentary)
TTITLE19=Sam's Place (w/ commentary)
TTITLE20=Johnnie B. Goode (w/ commentary)
TTITLE21=Streets Of Bakersfield feat. Dwight Yoakam  (w/ commentary)
EXTD=ID3G: 2
EXTT0=
EXTT1=
EXTT2=
EXTT3=
EXTT4=
EXTT5=
EXTT6=
EXTT7=
EXTT8=
EXTT9=
EXTT10=
EXTT11=
EXTT12=
EXTT13=
EXTT14=
EXTT15=
EXTT16=
EXTT17=
EXTT18=
EXTT19=
EXTT20=
EXTT21=
PLAYORDER=
